<svg width="50" height="50" viewBox="0 0 50 50" fill="none" xmlns="http://www.w3.org/2000/svg">
<path d="M31.7089 0.178467C33.0953 3.67096 33.0951 3.67106 31.133 6.87573C34.6255 5.48935 34.6257 5.48924 37.8303 7.45128C36.4439 3.95878 36.4438 3.95889 38.4058 0.754221C34.9133 2.14071 34.9135 2.14061 31.7089 0.178467ZM9.9205 2.01014C8.67513 4.22921 8.67513 4.22921 6.15273 4.56428C8.3718 5.80976 8.3718 5.80965 8.70687 8.33215C9.95225 6.11309 9.95225 6.11309 12.4746 5.77801C10.2556 4.53264 10.2556 4.53264 9.9205 2.01014ZM17.9941 7.9358C17.8937 13.2713 17.8939 13.2713 13.5654 16.3923C18.9007 16.4925 18.9008 16.4925 22.0219 20.8209C22.1221 15.4855 22.1221 15.4855 26.4505 12.3644C21.1151 12.2642 21.1151 12.2642 17.994 7.9358H17.9941ZM38.1573 13.8299C38.1525 16.3746 38.1523 16.3744 36.1137 17.8972C38.6583 17.9022 38.6583 17.9021 40.1812 19.9407C40.1861 17.3961 40.186 17.3962 42.2246 15.8734C39.6801 15.8684 39.6802 15.8685 38.1573 13.8299ZM18.742 22.6766C18.6192 22.6791 18.4964 22.6838 18.3737 22.6908C16.4129 22.803 13.9579 23.5784 10.2057 25.0697L6.01689 43.7295C14.2948 41.5427 20.0411 41.4188 24.051 43.2427V24.1258C22.1445 23.1963 20.6981 22.7126 19.1249 22.677C18.9973 22.6743 18.8697 22.6743 18.7421 22.6767L18.742 22.6766ZM31.6816 23.8811C31.3822 23.8784 31.0828 23.8819 30.7836 23.8914C29.4325 23.9354 27.8686 24.125 25.9489 24.3684V43.0506C30.5436 42.2253 37.2182 42.6076 44.0098 43.8485L39.8142 25.1598C36.0275 24.277 33.8459 23.9037 31.6816 23.8812V23.8811ZM31.923 25.6688C33.9152 25.6903 35.8097 25.9607 37.5874 26.1982L38.0553 27.9409C35.5473 27.5454 31.098 27.4235 28.303 27.8375L28.2359 25.9597C29.4972 25.7325 30.7276 25.6559 31.923 25.6688ZM5.50484 26.1601L4.38508 31.012H6.92624L8.01531 26.1601H5.50484ZM41.9845 26.1601L46.176 44.8313L46.4122 45.8831L48.7948 45.8671L44.4859 26.1601H41.9845ZM33.6675 32.2583C35.4598 32.261 37.2187 32.3417 38.8509 32.4927L39.2226 34.304C35.7795 33.9792 31.5676 33.9993 28.3598 34.304L28.285 32.4927C30.0498 32.331 31.8752 32.2556 33.6675 32.2583ZM3.94717 32.9101L3.21691 36.0745H5.78971L6.50004 32.9101H3.94717ZM32.8897 35.7835C33.3808 35.7857 33.8903 35.7924 34.4418 35.8049L34.7112 37.6504C32.605 37.6007 29.7421 37.7094 28.4118 37.7611L28.338 35.8642C30.1102 35.8122 31.4165 35.7769 32.8897 35.7835ZM37.2641 35.8306C38.1361 35.835 39.0251 35.8658 39.8081 35.8379L40.0802 37.7089C39.1676 37.676 37.4572 37.6213 36.6985 37.6559L36.4024 35.8383C36.6896 35.8312 36.9769 35.8286 37.2641 35.8306ZM2.779 37.9726L0.882144 46.1915L3.52255 46.1736L5.36351 37.9726H2.779ZM34.7533 39.2222C36.8214 39.2211 38.8307 39.3038 40.7069 39.4934L41.0229 41.6858C37.4048 41.2382 31.9784 40.874 28.4616 41.3437L28.4468 39.4534C30.5583 39.308 32.6852 39.2232 34.7533 39.2222ZM17.1816 43.8681C14.0057 43.8775 10.0186 44.5272 5.00966 45.9521L4.24818 46.1686L24.0509 46.0347V45.3653C22.3385 44.3943 20.1042 43.8594 17.1817 43.8681H17.1816ZM31.3577 44.5192C29.2873 44.5263 27.4435 44.671 25.9489 44.9603V46.0217L44.6795 45.8948C40.0049 44.9842 35.2784 44.5058 31.3578 44.5192H31.3577ZM0.742188 48.0978V49.9962H49.2578V48.0978H0.742188Z" fill="#778BC6"/>
</svg>
