<svg width="70" height="70" viewBox="0 0 70 70" fill="none" xmlns="http://www.w3.org/2000/svg">
<g clip-path="url(#clip0_1_932)">
<path d="M20.8711 32.4665C20.5637 32.6422 20.1863 32.6422 19.8789 32.4665L13.0039 28.5379C12.6923 28.3599 12.5 28.0285 12.5 27.6697V19.8303C12.5 19.4715 12.6923 19.1401 13.0039 18.9621L19.8789 15.0335C20.1863 14.8578 20.5637 14.8578 20.8711 15.0335L27.7461 18.9621C28.0577 19.1401 28.25 19.4715 28.25 19.8303V27.6697C28.25 28.0285 28.0577 28.3599 27.7461 28.5379L20.8711 32.4665ZM19.882 27.2956C20.1878 27.4689 20.5622 27.4689 20.868 27.2956L23.243 25.9498C23.5563 25.7722 23.75 25.4399 23.75 25.0798V22.4202C23.75 22.0601 23.5563 21.7278 23.243 21.5502L20.868 20.2044C20.5622 20.0311 20.1878 20.0311 19.882 20.2044L17.507 21.5502C17.1937 21.7278 17 22.0601 17 22.4202V25.0798C17 25.4399 17.1937 25.7722 17.507 25.9498L19.882 27.2956ZM45.6211 34.7832C45.3139 34.6039 45.125 34.275 45.125 33.9194V31.0071C45.125 30.2345 45.9638 29.7538 46.6304 30.1442L52.5054 33.5853C52.8118 33.7647 53 34.0932 53 34.4482V49.0506C53 49.4063 52.8111 49.7352 52.5039 49.9144L40.0039 57.2061C39.6925 57.3877 39.3075 57.3877 38.9961 57.2061L26.4961 49.9144C26.1889 49.7352 26 49.4063 26 49.0506V34.4482C26 34.0932 26.1882 33.7647 26.4946 33.5853L32.3696 30.1442C33.0362 29.7538 33.875 30.2345 33.875 31.0071V33.9194C33.875 34.275 33.6861 34.6039 33.3789 34.7832L30.9961 36.1731C30.6889 36.3523 30.5 36.6812 30.5 37.0369V46.4621C30.5 46.8183 30.6895 47.1476 30.9975 47.3267L38.9975 51.9767C39.3082 52.1572 39.6918 52.1572 40.0025 51.9767L48.0025 47.3267C48.3105 47.1476 48.5 46.8183 48.5 46.4621V37.0369C48.5 36.6812 48.3111 36.3523 48.0039 36.1731L45.6211 34.7832ZM38.25 39.5C37.6977 39.5 37.25 39.0523 37.25 38.5V13.5C37.25 12.9477 37.6977 12.5 38.25 12.5H55.6315C56.4302 12.5 56.9066 13.3901 56.4635 14.0547L53.3698 18.6953C53.1459 19.0312 53.1459 19.4688 53.3698 19.8047L56.4635 24.4453C56.9066 25.1099 56.4302 26 55.6315 26H42.75C42.1977 26 41.75 26.4477 41.75 27V38.5C41.75 39.0523 41.3023 39.5 40.75 39.5H38.25Z" fill="#2B1E18"/>
<path fill-rule="evenodd" clip-rule="evenodd" d="M4.19086 4.19086L4.19086 65.6568L65.6568 65.6568L65.6568 4.19086L4.19086 4.19086ZM3.25956 0C1.45935 0 0 1.45936 0 3.25956L0 66.5882C0 68.3884 1.45936 69.8477 3.25956 69.8477L66.5882 69.8477C68.3884 69.8477 69.8477 68.3884 69.8477 66.5882L69.8477 3.25956C69.8477 1.45935 68.3884 0 66.5882 0L3.25956 0Z" fill="#2B1E18"/>
</g>
<defs>
<clipPath id="clip0_1_932">
<rect width="70" height="70" fill="white"/>
</clipPath>
</defs>
</svg>
