<svg width="70" height="70" viewBox="0 0 70 70" fill="none" xmlns="http://www.w3.org/2000/svg">
<g clip-path="url(#clip0_1_957)">
<path d="M42.6251 15.5H45.0001C45.63 15.5 46.2341 15.7502 46.6795 16.1956C47.1249 16.641 47.3751 17.2451 47.3751 17.875V26.1875M54.5001 20.25C55.1271 20.516 55.7351 20.7654 56.3241 20.9981C56.9039 21.2441 57.3622 21.7104 57.5983 22.2943C57.8343 22.8782 57.8288 23.5319 57.5829 24.1117L52.1251 36.875M15.5596 23.0929L32.5124 15.709C32.7921 15.5891 33.093 15.5264 33.3974 15.5247C33.7017 15.5229 34.0033 15.5821 34.2844 15.6987C34.5656 15.8154 34.8205 15.9871 35.0341 16.2039C35.2478 16.4206 35.416 16.6779 35.5286 16.9606L47.2231 45.2279C47.4662 45.8011 47.4745 46.4468 47.2461 47.026C47.0178 47.6053 46.5712 48.0717 46.0024 48.3249L29.052 55.7087C28.7721 55.829 28.471 55.892 28.1664 55.894C27.8618 55.8959 27.5599 55.8368 27.2785 55.7201C26.9971 55.6035 26.7419 55.4316 26.5281 55.2147C26.3142 54.9977 26.146 54.7401 26.0334 54.4571L14.3389 26.1875C14.0958 25.6143 14.0875 24.9686 14.3158 24.3893C14.5442 23.8101 14.9908 23.3461 15.5596 23.0929Z" stroke="#2B1E18" stroke-width="4.75" stroke-linecap="round" stroke-linejoin="round"/>
<path fill-rule="evenodd" clip-rule="evenodd" d="M4.19086 4.19086L4.19086 65.6568L65.6568 65.6568L65.6568 4.19086L4.19086 4.19086ZM3.25956 0C1.45935 0 0 1.45936 0 3.25956L0 66.5882C0 68.3884 1.45936 69.8477 3.25956 69.8477L66.5882 69.8477C68.3884 69.8477 69.8477 68.3884 69.8477 66.5882L69.8477 3.25956C69.8477 1.45935 68.3884 0 66.5882 0L3.25956 0Z" fill="#2B1E18"/>
</g>
<defs>
<clipPath id="clip0_1_957">
<rect width="70" height="70" fill="white"/>
</clipPath>
</defs>
</svg>
