<svg width="70" height="70" viewBox="0 0 70 70" fill="none" xmlns="http://www.w3.org/2000/svg">
<path d="M18.0835 28.9583C18.0835 28.9583 11.869 31.3749 10.8335 39.8333M51.9168 28.9583C51.9168 28.9583 58.1313 31.3749 59.1668 39.8333M27.7502 28.9583C27.7502 28.9583 33.5502 30.3684 35.0002 37.4166C36.4502 30.3684 42.2502 28.9583 42.2502 28.9583M30.1668 47.0833C30.1668 47.0833 25.0918 47.9895 22.9168 54.3333M39.8335 47.0833C39.8335 47.0833 44.9085 47.9895 47.0835 54.3333" stroke="#2B1E18" stroke-width="4.83333" stroke-linecap="round"/>
<path d="M35.0002 49.5C38.3369 49.5 41.0418 46.795 41.0418 43.4583C41.0418 40.1216 38.3369 37.4166 35.0002 37.4166C31.6634 37.4166 28.9585 40.1216 28.9585 43.4583C28.9585 46.795 31.6634 49.5 35.0002 49.5Z" stroke="#2B1E18" stroke-width="4.83333" stroke-linecap="round" stroke-linejoin="round"/>
<path d="M47.0835 30.1666C51.0876 30.1666 54.3335 26.9207 54.3335 22.9166C54.3335 18.9126 51.0876 15.6666 47.0835 15.6666C43.0794 15.6666 39.8335 18.9126 39.8335 22.9166C39.8335 26.9207 43.0794 30.1666 47.0835 30.1666Z" stroke="#2B1E18" stroke-width="4.83333" stroke-linecap="round" stroke-linejoin="round"/>
<path d="M22.9165 30.1666C26.9206 30.1666 30.1665 26.9207 30.1665 22.9166C30.1665 18.9126 26.9206 15.6666 22.9165 15.6666C18.9124 15.6666 15.6665 18.9126 15.6665 22.9166C15.6665 26.9207 18.9124 30.1666 22.9165 30.1666Z" stroke="#2B1E18" stroke-width="4.83333" stroke-linecap="round" stroke-linejoin="round"/>
<path fill-rule="evenodd" clip-rule="evenodd" d="M4.19086 4.19086L4.19086 65.6568L65.6568 65.6568L65.6568 4.19086L4.19086 4.19086ZM3.25956 0C1.45935 0 0 1.45936 0 3.25956L0 66.5882C0 68.3884 1.45936 69.8477 3.25956 69.8477L66.5882 69.8477C68.3884 69.8477 69.8477 68.3884 69.8477 66.5882L69.8477 3.25956C69.8477 1.45935 68.3884 0 66.5882 0L3.25956 0Z" fill="#2B1E18"/>
</svg>
