<svg width="70" height="70" viewBox="0 0 70 70" fill="none" xmlns="http://www.w3.org/2000/svg">
<path d="M48.5004 27.3125C47.7504 26.4583 46.9795 25.6041 46.167 24.7916L45.5629 24.2291L45.8545 23.9791C46.8734 23.1046 47.5994 21.9385 47.9347 20.6384C48.27 19.3382 48.1984 17.9665 47.7295 16.7083C47.0502 15.2895 45.9745 14.0977 44.6325 13.277C43.2905 12.4563 41.7396 12.0417 40.167 12.0833V16.25C40.9083 16.2396 41.6389 16.4273 42.2834 16.7935C42.928 17.1597 43.4631 17.6913 43.8337 18.3333C44.1879 19.1666 43.8337 20.0833 42.8545 21.0625C42.7087 21.2291 42.542 21.3333 42.3962 21.4791C36.1462 16.4583 29.2921 13.625 25.9379 16.9791C25.5865 17.3383 25.2978 17.7538 25.0837 18.2083V18.4166L24.7087 19.5208L15.5212 46.8125C15.1737 47.8409 15.0762 48.9374 15.2368 50.011C15.3975 51.0847 15.8116 52.1046 16.4449 52.9863C17.0781 53.868 17.9124 54.5862 18.8785 55.0813C19.8446 55.5764 20.9148 55.8342 22.0004 55.8333C22.7092 55.8264 23.4124 55.7069 24.0837 55.4791L52.667 46C53.0183 45.8692 53.3278 45.6461 53.5629 45.3541L54.0004 44.9791C56.9795 41.9791 55.0629 36.2083 51.0629 30.6041C53.438 29.218 56.1728 28.5724 58.917 28.75V24.5833C55.2449 24.3813 51.6017 25.3357 48.5004 27.3125ZM22.8754 51.5208C22.4025 51.6773 21.8954 51.6993 21.4107 51.5844C20.926 51.4694 20.4828 51.222 20.1306 50.8698C19.7784 50.5175 19.5309 50.0743 19.416 49.5896C19.301 49.105 19.323 48.5979 19.4796 48.125L22.3129 39.5833C24.3349 43.4393 27.442 46.6188 31.2504 48.7291L22.8754 51.5208ZM37.4587 46.6666C34.3102 45.8328 31.4381 44.1816 29.1332 41.8804C26.8283 39.5792 25.1725 36.7096 24.3337 33.5625L26.4171 27.3125L26.5421 27.5C26.7712 27.9583 27.0629 28.4375 27.3546 28.9166C27.6462 29.3958 27.6879 29.5208 27.8962 29.8333C28.1045 30.1458 28.5837 30.8333 28.9587 31.3541C29.3337 31.875 29.3546 31.9375 29.5837 32.2291C29.8129 32.5208 30.4796 33.375 30.9587 33.9375L31.5629 34.6666C32.2712 35.4791 33.0212 36.2708 33.8129 37.0833C34.6045 37.8958 35.2295 38.4166 35.8962 39.1666L36.5837 39.75L38.2087 41.0625L38.9796 41.6458C39.5629 42.0625 40.1254 42.4791 40.7087 42.8541L41.3545 43.2708C42.1045 43.7291 42.8546 44.1666 43.5837 44.5416H43.6879L37.4587 46.6666ZM51.0212 42.0208H50.8962C49.4587 42.8125 43.4795 40.8333 36.7504 34.0833C36.042 33.375 35.3754 32.6875 34.7712 32L34.167 31.2708L33.0629 29.9375L32.4587 29.1041C32.1879 28.7083 31.8962 28.3333 31.6462 27.9583L31.1045 27.0833L30.5004 26.1041C30.3337 25.8125 30.2087 25.5416 30.0629 25.2708C29.917 25 29.7504 24.7291 29.6254 24.4375C29.5136 24.1934 29.4163 23.9429 29.3337 23.6875C29.2296 23.4166 29.1045 23.1458 29.0212 22.8958C28.9379 22.6458 28.9171 22.5 28.8546 22.25C28.7921 22 28.7504 21.7916 28.7087 21.5833C28.6983 21.4029 28.6983 21.222 28.7087 21.0416C28.6886 20.8756 28.6886 20.7077 28.7087 20.5416L28.9379 19.8958C29.6879 19.1458 33.5837 19.8958 38.7921 23.8541C37.9092 24.2526 36.9653 24.4991 36.0004 24.5833V28.75C38.2134 28.6227 40.3605 27.9499 42.2504 26.7916L43.2504 27.75C44.1254 28.625 44.9379 29.5208 45.7087 30.4166C44.5162 32.5731 44.0763 35.0655 44.4587 37.5L48.6254 36.6875C48.5026 35.9145 48.5026 35.1271 48.6254 34.3541C49.2612 35.3183 49.8252 36.328 50.3129 37.375C51.4795 40.125 51.3962 41.6666 51.0212 42.0208Z" fill="#2B1E18"/>
<path fill-rule="evenodd" clip-rule="evenodd" d="M4.19086 4.19086L4.19086 65.6568L65.6568 65.6568L65.6568 4.19086L4.19086 4.19086ZM3.25956 0C1.45935 0 0 1.45936 0 3.25956L0 66.5882C0 68.3884 1.45936 69.8477 3.25956 69.8477L66.5882 69.8477C68.3884 69.8477 69.8477 68.3884 69.8477 66.5882L69.8477 3.25956C69.8477 1.45935 68.3884 0 66.5882 0L3.25956 0Z" fill="#2B1E18"/>
</svg>
