<svg width="70" height="70" viewBox="0 0 70 70" fill="none" xmlns="http://www.w3.org/2000/svg">
<path d="M44.2266 9.46178C43.8239 9.06025 43.1679 9.07484 42.7836 9.49388L42.2198 10.1084L39.4052 13.0782C39.2164 13.2774 38.9539 13.3903 38.6794 13.3903H33.483C32.9307 13.3903 32.483 13.838 32.483 14.3903V19.4445C32.483 19.7006 32.3847 19.947 32.2085 20.1328L29.3117 23.1861L28.7207 23.8064C28.3461 24.1996 28.3538 24.82 28.7381 25.2038L29.3154 25.7803L31.3748 27.8397C31.765 28.2299 31.7654 28.8623 31.3757 29.253L10.5866 50.0938L9.98504 50.6979C9.58961 51.095 9.59763 51.7394 10.0028 52.1266L10.5885 52.6861L15.3158 57.4116L15.9163 58.0121C16.3131 58.4089 16.9587 58.4016 17.3464 57.9958L17.9081 57.408L38.7508 36.6242C39.1415 36.2346 39.7739 36.235 40.164 36.6252L42.2235 38.6847L42.799 39.2601C43.1832 39.6444 43.804 39.6514 44.1969 39.276L44.8177 38.6828L47.8655 35.79C48.0513 35.6136 48.2977 35.5153 48.5539 35.5153H53.608C54.1603 35.5153 54.608 35.0676 54.608 34.5153V29.3208C54.608 29.0462 54.7209 28.7837 54.9203 28.5949L57.8936 25.7784L58.507 25.2165C58.9265 24.8322 58.9414 24.1758 58.5396 23.773L57.9526 23.1843L54.9017 20.1401C54.7137 19.9525 54.608 19.6978 54.608 19.4322V14.394C54.608 13.8417 54.1603 13.394 53.608 13.394H48.5696C48.3041 13.394 48.0495 13.2884 47.8619 13.1005L44.814 10.0476L44.2266 9.46178ZM43.5437 14.0245L46.0807 16.5597L46.3745 16.8236C46.5581 16.9884 46.796 17.0796 47.0427 17.0796H49.9223C50.4746 17.0796 50.9223 17.5273 50.9223 18.0796V20.9583C50.9223 21.2056 51.0139 21.444 51.1794 21.6277L51.4423 21.9195L53.2523 23.7282C53.6499 24.1254 53.6421 24.7721 53.2351 25.1597L51.4994 26.8128L51.2523 27.0347C51.0411 27.2244 50.9205 27.4949 50.9205 27.7787V30.8278C50.9205 31.3801 50.4728 31.8278 49.9205 31.8278H47.0699C46.8059 31.8278 46.5526 31.9322 46.3653 32.1182L46.1378 32.344L44.2531 34.147C43.8599 34.5231 43.2382 34.5158 42.8539 34.1306L42.6994 33.9758C42.3086 33.584 42.3102 32.9494 42.703 32.5596L49.0767 26.2357L49.6636 25.6757C50.0698 25.2881 50.0774 24.6422 49.6804 24.2451L49.0767 23.6415L44.3531 18.9215L43.7777 18.3445C43.3929 17.9585 42.7697 17.9519 42.3767 18.3296L41.7607 18.9215L35.4372 25.2932C35.0473 25.686 34.4124 25.6874 34.0207 25.2963L33.8668 25.1425C33.482 24.7582 33.4749 24.1368 33.8509 23.7437L35.6542 21.8586L35.8801 21.6311C36.0661 21.4438 36.1705 21.1905 36.1705 20.9265V18.0796C36.1705 17.5273 36.6182 17.0796 37.1705 17.0796H40.2221C40.5066 17.0796 40.7777 16.9584 40.9674 16.7463L41.1855 16.5025L43.5437 14.0283C43.5447 14.0272 43.5447 14.0255 43.5437 14.0245ZM43.0834 22.841C43.083 22.8412 43.083 22.8416 43.0832 22.8419L44.4696 24.2639C44.8516 24.6558 44.8477 25.282 44.4607 25.669L17.3375 52.7957C16.9506 53.1827 16.3246 53.1868 15.9326 52.805L15.2341 52.1246C14.8348 51.7357 14.8306 51.0953 15.2247 50.7012L43.084 22.8419C43.0845 22.8414 43.0839 22.8407 43.0834 22.841ZM40.9532 42.7188C40.444 42.7188 40.0313 43.1315 40.0313 43.6407C40.0313 44.1498 39.6186 44.5626 39.1094 44.5626C38.6003 44.5626 38.1876 44.9753 38.1876 45.4844V47.3282C38.1876 47.8373 38.6003 48.2501 39.1094 48.2501C39.6186 48.2501 40.0313 48.6628 40.0313 49.1719C40.0313 49.6811 40.444 50.0938 40.9532 50.0938H42.7969C43.3061 50.0938 43.7188 49.6811 43.7188 49.1719C43.7188 48.6628 44.1315 48.2501 44.6407 48.2501C45.1498 48.2501 45.5626 47.8373 45.5626 47.3282V45.4844C45.5626 44.9753 45.1498 44.5626 44.6407 44.5626C44.1315 44.5626 43.7188 44.1498 43.7188 43.6407C43.7188 43.1315 43.3061 42.7188 42.7969 42.7188H40.9532ZM52.0938 46.4063C51.5415 46.4063 51.0938 46.854 51.0938 47.4063V49.0938C51.0938 49.6461 50.6461 50.0938 50.0938 50.0938H48.4063C47.854 50.0938 47.4063 50.5415 47.4063 51.0938V52.7813C47.4063 53.3336 47.854 53.7813 48.4063 53.7813H50.0938C50.6461 53.7813 51.0938 54.229 51.0938 54.7813V56.4688C51.0938 57.0211 51.5415 57.4688 52.0938 57.4688H53.7813C54.3336 57.4688 54.7813 57.0211 54.7813 56.4688V54.7813C54.7813 54.229 55.229 53.7813 55.7813 53.7813H57.4688C58.0211 53.7813 58.4688 53.3336 58.4688 52.7813V51.0938C58.4688 50.5415 58.0211 50.0938 57.4688 50.0938H55.7813C55.229 50.0938 54.7813 49.6461 54.7813 49.0938V47.4063C54.7813 46.854 54.3336 46.4063 53.7813 46.4063H52.0938Z" fill="#2B1E18"/>
<path fill-rule="evenodd" clip-rule="evenodd" d="M4.19086 4.19086L4.19086 65.6568L65.6568 65.6568L65.6568 4.19086L4.19086 4.19086ZM3.25956 0C1.45935 0 0 1.45936 0 3.25956L0 66.5882C0 68.3884 1.45936 69.8477 3.25956 69.8477L66.5882 69.8477C68.3884 69.8477 69.8477 68.3884 69.8477 66.5882L69.8477 3.25956C69.8477 1.45935 68.3884 0 66.5882 0L3.25956 0Z" fill="#2B1E18"/>
</svg>
