<svg width="70" height="70" viewBox="0 0 70 70" fill="none" xmlns="http://www.w3.org/2000/svg">
<path fill-rule="evenodd" clip-rule="evenodd" d="M27.071 13.4428C29.902 12.2702 32.9361 11.6666 36.0003 11.6666C39.0645 11.6666 42.0987 12.2702 44.9296 13.4428C47.7605 14.6154 50.3328 16.3341 52.4995 18.5008C54.6662 20.6675 56.3849 23.2397 57.5575 26.0707C58.7301 28.9016 59.3337 31.9358 59.3337 35C59.3337 38.0641 58.7301 41.0983 57.5575 43.9292C56.3849 46.7602 54.6662 49.3324 52.4995 51.4991C50.3328 53.6658 47.7605 55.3845 44.9296 56.5571C42.0987 57.7298 39.0645 58.3333 36.0003 58.3333C32.9361 58.3333 29.902 57.7298 27.071 56.5571C24.2401 55.3845 21.6679 53.6658 19.5012 51.4991C17.3345 49.3324 15.6157 46.7602 14.4431 43.9292C13.2705 41.0983 12.667 38.0641 12.667 35C12.667 31.9358 13.2705 28.9016 14.4431 26.0707C15.6157 23.2397 17.3345 20.6675 19.5012 18.5008C21.6679 16.3341 24.2401 14.6154 27.071 13.4428ZM36.0003 16.3333C33.549 16.3333 31.1216 16.8161 28.8569 17.7542C26.5922 18.6923 24.5344 20.0673 22.801 21.8006C21.0676 23.534 19.6927 25.5918 18.7546 27.8565C17.8165 30.1213 17.3337 32.5486 17.3337 35C17.3337 37.4513 17.8165 39.8786 18.7546 42.1434C19.6927 44.4081 21.0676 46.4659 22.801 48.1993C24.5344 49.9326 26.5922 51.3076 28.8569 52.2457C31.1216 53.1838 33.549 53.6666 36.0003 53.6666C38.4517 53.6666 40.879 53.1838 43.1437 52.2457C45.4085 51.3076 47.4663 49.9326 49.1996 48.1993C50.933 46.4659 52.308 44.4081 53.2461 42.1434C54.1842 39.8786 54.667 37.4513 54.667 35C54.667 32.5486 54.1842 30.1213 53.2461 27.8565C52.308 25.5918 50.933 23.534 49.1996 21.8006C47.4663 20.0673 45.4085 18.6923 43.1437 17.7542C40.879 16.8161 38.4517 16.3333 36.0003 16.3333ZM26.667 30.3333C26.667 29.0446 27.7117 28 29.0003 28H29.0237C30.3123 28 31.357 29.0446 31.357 30.3333C31.357 31.622 30.3123 32.6666 29.0237 32.6666H29.0003C27.7117 32.6666 26.667 31.622 26.667 30.3333ZM40.667 30.3333C40.667 29.0446 41.7117 28 43.0003 28H43.0237C44.3123 28 45.357 29.0446 45.357 30.3333C45.357 31.622 44.3123 32.6666 43.0237 32.6666H43.0003C41.7117 32.6666 40.667 31.622 40.667 30.3333Z" fill="#2B1E18"/>
<path fill-rule="evenodd" clip-rule="evenodd" d="M31.0509 13.7169C32.3637 12.4041 34.1441 11.6666 36.0007 11.6666C37.2893 11.6666 38.334 12.7113 38.334 14C38.334 15.2886 37.2893 16.3333 36.0007 16.3333C35.3818 16.3333 34.7883 16.5791 34.3507 17.0167C33.9132 17.4543 33.6673 18.0478 33.6673 18.6666C33.6673 19.2855 33.9132 19.879 34.3507 20.3165C34.7883 20.7541 35.3818 21 36.0007 21C37.2893 21 38.334 22.0446 38.334 23.3333C38.334 24.622 37.2893 25.6666 36.0007 25.6666C34.1441 25.6666 32.3637 24.9291 31.0509 23.6164C29.7382 22.3036 29.0007 20.5231 29.0007 18.6666C29.0007 16.8101 29.7382 15.0296 31.0509 13.7169ZM28.5343 40.3333C29.4548 39.4314 30.9321 39.4465 31.834 40.367C32.3771 40.9213 33.0254 41.3617 33.7409 41.6623C34.4563 41.963 35.2246 42.1178 36.0007 42.1178C36.7767 42.1178 37.545 41.963 38.2604 41.6623C38.9759 41.3617 39.6242 40.9213 40.1673 40.367C41.0692 39.4465 42.5465 39.4314 43.467 40.3333C44.3875 41.2352 44.4025 42.7125 43.5007 43.633C42.523 44.6307 41.3561 45.4234 40.0683 45.9646C38.7804 46.5057 37.3976 46.7845 36.0007 46.7845C34.6037 46.7845 33.2209 46.5057 31.933 45.9646C30.6452 45.4234 29.4783 44.6307 28.5007 43.633C27.5988 42.7125 27.6139 41.2352 28.5343 40.3333Z" fill="#2B1E18"/>
<path fill-rule="evenodd" clip-rule="evenodd" d="M4.19086 4.19086L4.19086 65.6568L65.6568 65.6568L65.6568 4.19086L4.19086 4.19086ZM3.25956 0C1.45935 0 0 1.45936 0 3.25956L0 66.5882C0 68.3884 1.45936 69.8477 3.25956 69.8477L66.5882 69.8477C68.3884 69.8477 69.8477 68.3884 69.8477 66.5882L69.8477 3.25956C69.8477 1.45935 68.3884 0 66.5882 0L3.25956 0Z" fill="#2B1E18"/>
</svg>
