<svg width="20" height="14" viewBox="0 0 20 14" fill="none" xmlns="http://www.w3.org/2000/svg">
<path d="M15.812 0.016625H4.145C1.855 0.016625 0 1.85163 0 4.11563V9.88363C0 12.1476 1.856 13.9836 4.145 13.9836H15.812C18.102 13.9836 19.957 12.1476 19.957 9.88363V4.11563C19.957 1.85163 18.101 0.015625 15.812 0.015625V0.016625ZM13.009 7.27963L7.552 9.85462C7.51872 9.87065 7.48192 9.878 7.44503 9.87598C7.40815 9.87396 7.37237 9.86264 7.34103 9.84308C7.3097 9.82352 7.28382 9.79635 7.2658 9.7641C7.24779 9.73185 7.23822 9.69557 7.238 9.65863V4.34963C7.23867 4.3125 7.24872 4.27614 7.26722 4.24395C7.28573 4.21176 7.31208 4.18477 7.34382 4.1655C7.37556 4.14624 7.41167 4.13532 7.44877 4.13377C7.48587 4.13221 7.52276 4.14008 7.556 4.15663L13.014 6.89163C13.0504 6.90976 13.0809 6.93777 13.102 6.97245C13.1232 7.00713 13.1341 7.04708 13.1336 7.08769C13.1331 7.12831 13.1211 7.16796 13.0991 7.20209C13.077 7.23621 13.0458 7.26344 13.009 7.28063V7.27963Z" fill="#2B1E18"/>
</svg>
